<?xml version="1.0" encoding="utf-8" standalone="no"?>
<!DOCTYPE svg PUBLIC "-//W3C//DTD SVG 1.1//EN"
  "http://www.w3.org/Graphics/SVG/1.1/DTD/svg11.dtd">
<svg xmlns:xlink="http://www.w3.org/1999/xlink" width="285.989375pt" height="234.17pt" viewBox="0 0 285.989375 234.17" xmlns="http://www.w3.org/2000/svg" version="1.1">
 <metadata>
  <rdf:RDF xmlns:dc="http://purl.org/dc/elements/1.1/" xmlns:cc="http://creativecommons.org/ns#" xmlns:rdf="http://www.w3.org/1999/02/22-rdf-syntax-ns#">
   <cc:Work>
    <dc:type rdf:resource="http://purl.org/dc/dcmitype/StillImage"/>
    <dc:date>2026-07-21T11:23:49.685966</dc:date>
    <dc:format>image/svg+xml</dc:format>
    <dc:creator>
     <cc:Agent>
      <dc:title>Matplotlib v3.10.9, https://matplotlib.org/</dc:title>
     </cc:Agent>
    </dc:creator>
   </cc:Work>
  </rdf:RDF>
 </metadata>
 <defs>
  <style type="text/css">*{stroke-linejoin: round; stroke-linecap: butt}</style>
 </defs>
 <g id="figure_1">
  <g id="patch_1">
   <path d="M 0 234.17 
L 285.989375 234.17 
L 285.989375 0 
L 0 0 
z
" style="fill: #ffffff"/>
  </g>
  <g id="axes_1">
   <g id="patch_2">
    <path d="M 46.339375 194.678125 
L 278.789375 194.678125 
L 278.789375 22.318125 
L 46.339375 22.318125 
z
" style="fill: #ffffff"/>
   </g>
   <g id="FillBetweenPolyCollection_1">
    <defs>
     <path id="ma30a3d9946" d="M 56.905284 -204.01733 
L 56.905284 -202.265139 
L 68.027294 -202.028517 
L 101.393322 -201.719243 
L 101.393322 -203.585737 
L 101.393322 -203.585737 
L 68.027294 -203.767582 
L 56.905284 -204.01733 
z
"/>
    </defs>
    <g clip-path="url(#p8a34dcbc28)">
     <use xlink:href="#ma30a3d9946" x="0" y="234.17" style="fill: #1f77b4; fill-opacity: 0.15"/>
    </g>
   </g>
   <g id="FillBetweenPolyCollection_2">
    <defs>
     <path id="m9b5622c24c" d="M 79.149303 -203.338982 
L 79.149303 -201.5021 
L 157.00337 -197.409268 
L 268.223466 -190.993527 
L 268.223466 -194.13398 
L 268.223466 -194.13398 
L 157.00337 -199.595733 
L 79.149303 -203.338982 
z
"/>
    </defs>
    <g clip-path="url(#p8a34dcbc28)">
     <use xlink:href="#m9b5622c24c" x="0" y="234.17" style="fill: #1f77b4; fill-opacity: 0.15"/>
    </g>
   </g>
   <g id="FillBetweenPolyCollection_3">
    <defs>
     <path id="m358fa104ad" d="M 56.905284 -69.81264 
L 56.905284 -61.309026 
L 68.027294 -61.698221 
L 101.393322 -60.124262 
L 101.393322 -67.954822 
L 101.393322 -67.954822 
L 68.027294 -69.787817 
L 56.905284 -69.81264 
z
"/>
    </defs>
    <g clip-path="url(#p8a34dcbc28)">
     <use xlink:href="#m358fa104ad" x="0" y="234.17" style="fill: #d62728; fill-opacity: 0.15"/>
    </g>
   </g>
   <g id="FillBetweenPolyCollection_4">
    <defs>
     <path id="m73364a5250" d="M 79.149303 -68.397417 
L 79.149303 -60.274345 
L 157.00337 -50.183364 
L 268.223466 -47.32642 
L 268.223466 -55.33754 
L 268.223466 -55.33754 
L 157.00337 -58.713648 
L 79.149303 -68.397417 
z
"/>
    </defs>
    <g clip-path="url(#p8a34dcbc28)">
     <use xlink:href="#m73364a5250" x="0" y="234.17" style="fill: #d62728; fill-opacity: 0.15"/>
    </g>
   </g>
   <g id="FillBetweenPolyCollection_5"/>
   <g id="FillBetweenPolyCollection_6"/>
   <g id="matplotlib.axis_1">
    <g id="xtick_1">
     <g id="line2d_1">
      <path d="M 101.393322 194.678125 
L 101.393322 22.318125 
" clip-path="url(#p8a34dcbc28)" style="fill: none; stroke: #b0b0b0; stroke-opacity: 0.25; stroke-width: 0.8; stroke-linecap: square"/>
     </g>
     <g id="line2d_2">
      <defs>
       <path id="mffab0e8665" d="M 0 0 
L 0 3.5 
" style="stroke: #000000; stroke-width: 0.8"/>
      </defs>
      <g>
       <use xlink:href="#mffab0e8665" x="101.393322" y="194.678125" style="stroke: #000000; stroke-width: 0.8"/>
      </g>
     </g>
     <g id="text_1">
      <text style="font-size: 11px; font-family: 'DejaVu Sans'; text-anchor: middle" x="101.393322" y="210.036406" transform="rotate(-0 101.393322 210.036406)">5</text>
     </g>
    </g>
    <g id="xtick_2">
     <g id="line2d_3">
      <path d="M 157.00337 194.678125 
L 157.00337 22.318125 
" clip-path="url(#p8a34dcbc28)" style="fill: none; stroke: #b0b0b0; stroke-opacity: 0.25; stroke-width: 0.8; stroke-linecap: square"/>
     </g>
     <g id="line2d_4">
      <g>
       <use xlink:href="#mffab0e8665" x="157.00337" y="194.678125" style="stroke: #000000; stroke-width: 0.8"/>
      </g>
     </g>
     <g id="text_2">
      <text style="font-size: 11px; font-family: 'DejaVu Sans'; text-anchor: middle" x="157.00337" y="210.036406" transform="rotate(-0 157.00337 210.036406)">10</text>
     </g>
    </g>
    <g id="xtick_3">
     <g id="line2d_5">
      <path d="M 212.613418 194.678125 
L 212.613418 22.318125 
" clip-path="url(#p8a34dcbc28)" style="fill: none; stroke: #b0b0b0; stroke-opacity: 0.25; stroke-width: 0.8; stroke-linecap: square"/>
     </g>
     <g id="line2d_6">
      <g>
       <use xlink:href="#mffab0e8665" x="212.613418" y="194.678125" style="stroke: #000000; stroke-width: 0.8"/>
      </g>
     </g>
     <g id="text_3">
      <text style="font-size: 11px; font-family: 'DejaVu Sans'; text-anchor: middle" x="212.613418" y="210.036406" transform="rotate(-0 212.613418 210.036406)">15</text>
     </g>
    </g>
    <g id="xtick_4">
     <g id="line2d_7">
      <path d="M 268.223466 194.678125 
L 268.223466 22.318125 
" clip-path="url(#p8a34dcbc28)" style="fill: none; stroke: #b0b0b0; stroke-opacity: 0.25; stroke-width: 0.8; stroke-linecap: square"/>
     </g>
     <g id="line2d_8">
      <g>
       <use xlink:href="#mffab0e8665" x="268.223466" y="194.678125" style="stroke: #000000; stroke-width: 0.8"/>
      </g>
     </g>
     <g id="text_4">
      <text style="font-size: 11px; font-family: 'DejaVu Sans'; text-anchor: middle" x="268.223466" y="210.036406" transform="rotate(-0 268.223466 210.036406)">20</text>
     </g>
    </g>
    <g id="text_5">
     <text style="font-size: 11px; font-family: 'DejaVu Sans'; text-anchor: middle" x="162.564375" y="224.682344" transform="rotate(-0 162.564375 224.682344)">Contamination level (%)</text>
    </g>
   </g>
   <g id="matplotlib.axis_2">
    <g id="ytick_1">
     <g id="line2d_9">
      <path d="M 46.339375 193.944596 
L 278.789375 193.944596 
" clip-path="url(#p8a34dcbc28)" style="fill: none; stroke: #b0b0b0; stroke-opacity: 0.25; stroke-width: 0.8; stroke-linecap: square"/>
     </g>
     <g id="line2d_10">
      <defs>
       <path id="m30ab1874f7" d="M 0 0 
L -3.5 0 
" style="stroke: #000000; stroke-width: 0.8"/>
      </defs>
      <g>
       <use xlink:href="#m30ab1874f7" x="46.339375" y="193.944596" style="stroke: #000000; stroke-width: 0.8"/>
      </g>
     </g>
     <g id="text_6">
      <text style="font-size: 11px; font-family: 'DejaVu Sans'; text-anchor: end" x="39.339375" y="198.123737" transform="rotate(-0 39.339375 198.123737)">0.6</text>
     </g>
    </g>
    <g id="ytick_2">
     <g id="line2d_11">
      <path d="M 46.339375 150.255787 
L 278.789375 150.255787 
" clip-path="url(#p8a34dcbc28)" style="fill: none; stroke: #b0b0b0; stroke-opacity: 0.25; stroke-width: 0.8; stroke-linecap: square"/>
     </g>
     <g id="line2d_12">
      <g>
       <use xlink:href="#m30ab1874f7" x="46.339375" y="150.255787" style="stroke: #000000; stroke-width: 0.8"/>
      </g>
     </g>
     <g id="text_7">
      <text style="font-size: 11px; font-family: 'DejaVu Sans'; text-anchor: end" x="39.339375" y="154.434928" transform="rotate(-0 39.339375 154.434928)">0.7</text>
     </g>
    </g>
    <g id="ytick_3">
     <g id="line2d_13">
      <path d="M 46.339375 106.566979 
L 278.789375 106.566979 
" clip-path="url(#p8a34dcbc28)" style="fill: none; stroke: #b0b0b0; stroke-opacity: 0.25; stroke-width: 0.8; stroke-linecap: square"/>
     </g>
     <g id="line2d_14">
      <g>
       <use xlink:href="#m30ab1874f7" x="46.339375" y="106.566979" style="stroke: #000000; stroke-width: 0.8"/>
      </g>
     </g>
     <g id="text_8">
      <text style="font-size: 11px; font-family: 'DejaVu Sans'; text-anchor: end" x="39.339375" y="110.746119" transform="rotate(-0 39.339375 110.746119)">0.8</text>
     </g>
    </g>
    <g id="ytick_4">
     <g id="line2d_15">
      <path d="M 46.339375 62.87817 
L 278.789375 62.87817 
" clip-path="url(#p8a34dcbc28)" style="fill: none; stroke: #b0b0b0; stroke-opacity: 0.25; stroke-width: 0.8; stroke-linecap: square"/>
     </g>
     <g id="line2d_16">
      <g>
       <use xlink:href="#m30ab1874f7" x="46.339375" y="62.87817" style="stroke: #000000; stroke-width: 0.8"/>
      </g>
     </g>
     <g id="text_9">
      <text style="font-size: 11px; font-family: 'DejaVu Sans'; text-anchor: end" x="39.339375" y="67.05731" transform="rotate(-0 39.339375 67.05731)">0.9</text>
     </g>
    </g>
    <g id="text_10">
     <text style="font-size: 11px; font-family: 'DejaVu Sans'; text-anchor: middle" x="15.558281" y="108.498125" transform="rotate(-90 15.558281 108.498125)">Importance rank correlation</text>
    </g>
   </g>
   <g id="line2d_17">
    <path d="M 56.905284 31.043388 
L 68.027294 31.271098 
L 101.393322 31.518881 
" clip-path="url(#p8a34dcbc28)" style="fill: none; stroke: #1f77b4; stroke-width: 1.6; stroke-linecap: square"/>
    <defs>
     <path id="m576f45c8a6" d="M 0 2.25 
C 0.596707 2.25 1.169055 2.012926 1.59099 1.59099 
C 2.012926 1.169055 2.25 0.596707 2.25 0 
C 2.25 -0.596707 2.012926 -1.169055 1.59099 -1.59099 
C 1.169055 -2.012926 0.596707 -2.25 0 -2.25 
C -0.596707 -2.25 -1.169055 -2.012926 -1.59099 -1.59099 
C -2.012926 -1.169055 -2.25 -0.596707 -2.25 0 
C -2.25 0.596707 -2.012926 1.169055 -1.59099 1.59099 
C -1.169055 2.012926 -0.596707 2.25 0 2.25 
z
" style="stroke: #1f77b4"/>
    </defs>
    <g clip-path="url(#p8a34dcbc28)">
     <use xlink:href="#m576f45c8a6" x="56.905284" y="31.043388" style="fill: #1f77b4; stroke: #1f77b4"/>
     <use xlink:href="#m576f45c8a6" x="68.027294" y="31.271098" style="fill: #1f77b4; stroke: #1f77b4"/>
     <use xlink:href="#m576f45c8a6" x="101.393322" y="31.518881" style="fill: #1f77b4; stroke: #1f77b4"/>
    </g>
   </g>
   <g id="line2d_18">
    <path d="M 79.149303 31.72675 
L 157.00337 35.68399 
L 268.223466 41.612666 
" clip-path="url(#p8a34dcbc28)" style="fill: none; stroke-dasharray: 5.92,2.56; stroke-dashoffset: 0; stroke: #1f77b4; stroke-width: 1.6"/>
    <defs>
     <path id="m9384bcd8b1" d="M -2.25 2.25 
L 2.25 2.25 
L 2.25 -2.25 
L -2.25 -2.25 
z
" style="stroke: #1f77b4; stroke-linejoin: miter"/>
    </defs>
    <g clip-path="url(#p8a34dcbc28)">
     <use xlink:href="#m9384bcd8b1" x="79.149303" y="31.72675" style="fill: #1f77b4; stroke: #1f77b4; stroke-linejoin: miter"/>
     <use xlink:href="#m9384bcd8b1" x="157.00337" y="35.68399" style="fill: #1f77b4; stroke: #1f77b4; stroke-linejoin: miter"/>
     <use xlink:href="#m9384bcd8b1" x="268.223466" y="41.612666" style="fill: #1f77b4; stroke: #1f77b4; stroke-linejoin: miter"/>
    </g>
   </g>
   <g id="line2d_19">
    <path d="M 56.905284 168.564321 
L 68.027294 168.351633 
L 101.393322 170.216441 
" clip-path="url(#p8a34dcbc28)" style="fill: none; stroke: #d62728; stroke-width: 1.6; stroke-linecap: square"/>
    <defs>
     <path id="m20c85ffc38" d="M 0 2.25 
C 0.596707 2.25 1.169055 2.012926 1.59099 1.59099 
C 2.012926 1.169055 2.25 0.596707 2.25 0 
C 2.25 -0.596707 2.012926 -1.169055 1.59099 -1.59099 
C 1.169055 -2.012926 0.596707 -2.25 0 -2.25 
C -0.596707 -2.25 -1.169055 -2.012926 -1.59099 -1.59099 
C -2.012926 -1.169055 -2.25 -0.596707 -2.25 0 
C -2.25 0.596707 -2.012926 1.169055 -1.59099 1.59099 
C -1.169055 2.012926 -0.596707 2.25 0 2.25 
z
" style="stroke: #d62728"/>
    </defs>
    <g clip-path="url(#p8a34dcbc28)">
     <use xlink:href="#m20c85ffc38" x="56.905284" y="168.564321" style="fill: #d62728; stroke: #d62728"/>
     <use xlink:href="#m20c85ffc38" x="68.027294" y="168.351633" style="fill: #d62728; stroke: #d62728"/>
     <use xlink:href="#m20c85ffc38" x="101.393322" y="170.216441" style="fill: #d62728; stroke: #d62728"/>
    </g>
   </g>
   <g id="line2d_20">
    <path d="M 79.149303 169.837041 
L 157.00337 179.687656 
L 268.223466 182.845677 
" clip-path="url(#p8a34dcbc28)" style="fill: none; stroke-dasharray: 5.92,2.56; stroke-dashoffset: 0; stroke: #d62728; stroke-width: 1.6"/>
    <defs>
     <path id="m6f5874ac50" d="M -2.25 2.25 
L 2.25 2.25 
L 2.25 -2.25 
L -2.25 -2.25 
z
" style="stroke: #d62728; stroke-linejoin: miter"/>
    </defs>
    <g clip-path="url(#p8a34dcbc28)">
     <use xlink:href="#m6f5874ac50" x="79.149303" y="169.837041" style="fill: #d62728; stroke: #d62728; stroke-linejoin: miter"/>
     <use xlink:href="#m6f5874ac50" x="157.00337" y="179.687656" style="fill: #d62728; stroke: #d62728; stroke-linejoin: miter"/>
     <use xlink:href="#m6f5874ac50" x="268.223466" y="182.845677" style="fill: #d62728; stroke: #d62728; stroke-linejoin: miter"/>
    </g>
   </g>
   <g id="line2d_21">
    <path clip-path="url(#p8a34dcbc28)" style="fill: none; stroke: #2ca02c; stroke-width: 1.6; stroke-linecap: square"/>
    <defs>
     <path id="m2362170dce" d="M 0 2.25 
C 0.596707 2.25 1.169055 2.012926 1.59099 1.59099 
C 2.012926 1.169055 2.25 0.596707 2.25 0 
C 2.25 -0.596707 2.012926 -1.169055 1.59099 -1.59099 
C 1.169055 -2.012926 0.596707 -2.25 0 -2.25 
C -0.596707 -2.25 -1.169055 -2.012926 -1.59099 -1.59099 
C -2.012926 -1.169055 -2.25 -0.596707 -2.25 0 
C -2.25 0.596707 -2.012926 1.169055 -1.59099 1.59099 
C -1.169055 2.012926 -0.596707 2.25 0 2.25 
z
" style="stroke: #2ca02c"/>
    </defs>
    <g clip-path="url(#p8a34dcbc28)"/>
   </g>
   <g id="line2d_22">
    <path clip-path="url(#p8a34dcbc28)" style="fill: none; stroke-dasharray: 5.92,2.56; stroke-dashoffset: 0; stroke: #2ca02c; stroke-width: 1.6"/>
    <defs>
     <path id="m44d8706ef0" d="M -2.25 2.25 
L 2.25 2.25 
L 2.25 -2.25 
L -2.25 -2.25 
z
" style="stroke: #2ca02c; stroke-linejoin: miter"/>
    </defs>
    <g clip-path="url(#p8a34dcbc28)"/>
   </g>
   <g id="patch_3">
    <path d="M 46.339375 194.678125 
L 46.339375 22.318125 
" style="fill: none; stroke: #000000; stroke-width: 0.8; stroke-linejoin: miter; stroke-linecap: square"/>
   </g>
   <g id="patch_4">
    <path d="M 278.789375 194.678125 
L 278.789375 22.318125 
" style="fill: none; stroke: #000000; stroke-width: 0.8; stroke-linejoin: miter; stroke-linecap: square"/>
   </g>
   <g id="patch_5">
    <path d="M 46.339375 194.678125 
L 278.789375 194.678125 
" style="fill: none; stroke: #000000; stroke-width: 0.8; stroke-linejoin: miter; stroke-linecap: square"/>
   </g>
   <g id="patch_6">
    <path d="M 46.339375 22.318125 
L 278.789375 22.318125 
" style="fill: none; stroke: #000000; stroke-width: 0.8; stroke-linejoin: miter; stroke-linecap: square"/>
   </g>
   <g id="text_11">
    <text style="font-weight: 700; font-size: 12px; font-family: 'DejaVu Sans'; text-anchor: middle" x="162.564375" y="16.318125" transform="rotate(-0 162.564375 16.318125)">(a) Importance rank correlation</text>
   </g>
  </g>
 </g>
 <defs>
  <clipPath id="p8a34dcbc28">
   <rect x="46.339375" y="22.318125" width="232.45" height="172.36"/>
  </clipPath>
 </defs>
</svg>
