<?xml version="1.0" encoding="utf-8" standalone="no"?>
<!DOCTYPE svg PUBLIC "-//W3C//DTD SVG 1.1//EN"
  "http://www.w3.org/Graphics/SVG/1.1/DTD/svg11.dtd">
<svg xmlns:xlink="http://www.w3.org/1999/xlink" width="292.933437pt" height="234.17pt" viewBox="0 0 292.933437 234.17" xmlns="http://www.w3.org/2000/svg" version="1.1">
 <metadata>
  <rdf:RDF xmlns:dc="http://purl.org/dc/elements/1.1/" xmlns:cc="http://creativecommons.org/ns#" xmlns:rdf="http://www.w3.org/1999/02/22-rdf-syntax-ns#">
   <cc:Work>
    <dc:type rdf:resource="http://purl.org/dc/dcmitype/StillImage"/>
    <dc:date>2026-07-21T11:23:50.601257</dc:date>
    <dc:format>image/svg+xml</dc:format>
    <dc:creator>
     <cc:Agent>
      <dc:title>Matplotlib v3.10.9, https://matplotlib.org/</dc:title>
     </cc:Agent>
    </dc:creator>
   </cc:Work>
  </rdf:RDF>
 </metadata>
 <defs>
  <style type="text/css">*{stroke-linejoin: round; stroke-linecap: butt}</style>
 </defs>
 <g id="figure_1">
  <g id="patch_1">
   <path d="M 0 234.17 
L 292.933437 234.17 
L 292.933437 0 
L 0 0 
z
" style="fill: #ffffff"/>
  </g>
  <g id="axes_1">
   <g id="patch_2">
    <path d="M 42.843438 194.678125 
L 285.733437 194.678125 
L 285.733437 22.318125 
L 42.843438 22.318125 
z
" style="fill: #ffffff"/>
   </g>
   <g id="FillBetweenPolyCollection_1">
    <defs>
     <path id="m3c814f1040" d="M 53.883892 -56.945054 
L 53.883892 -51.436729 
L 65.505423 -49.884323 
L 100.370016 -52.371677 
L 100.370016 -58.442259 
L 100.370016 -58.442259 
L 65.505423 -55.086343 
L 53.883892 -56.945054 
z
"/>
    </defs>
    <g clip-path="url(#pd53f3b4ce9)">
     <use xlink:href="#m3c814f1040" x="0" y="234.17" style="fill: #1f77b4; fill-opacity: 0.15"/>
    </g>
   </g>
   <g id="FillBetweenPolyCollection_2">
    <defs>
     <path id="m80ed40eabd" d="M 77.126954 -71.992631 
L 77.126954 -65.687755 
L 158.477672 -110.384427 
L 274.692983 -166.379118 
L 274.692983 -189.17439 
L 274.692983 -189.17439 
L 158.477672 -124.397935 
L 77.126954 -71.992631 
z
"/>
    </defs>
    <g clip-path="url(#pd53f3b4ce9)">
     <use xlink:href="#m80ed40eabd" x="0" y="234.17" style="fill: #1f77b4; fill-opacity: 0.15"/>
    </g>
   </g>
   <g id="FillBetweenPolyCollection_3">
    <defs>
     <path id="m0c45c4f3f9" d="M 53.883892 -57.990362 
L 53.883892 -53.564344 
L 65.505423 -52.605105 
L 100.370016 -53.891413 
L 100.370016 -58.799819 
L 100.370016 -58.799819 
L 65.505423 -56.886801 
L 53.883892 -57.990362 
z
"/>
    </defs>
    <g clip-path="url(#pd53f3b4ce9)">
     <use xlink:href="#m0c45c4f3f9" x="0" y="234.17" style="fill: #d62728; fill-opacity: 0.15"/>
    </g>
   </g>
   <g id="FillBetweenPolyCollection_4">
    <defs>
     <path id="m2856d68fce" d="M 77.126954 -74.89762 
L 77.126954 -69.145956 
L 158.477672 -115.60267 
L 274.692983 -176.339652 
L 274.692983 -204.01733 
L 274.692983 -204.01733 
L 158.477672 -128.944882 
L 77.126954 -74.89762 
z
"/>
    </defs>
    <g clip-path="url(#pd53f3b4ce9)">
     <use xlink:href="#m2856d68fce" x="0" y="234.17" style="fill: #d62728; fill-opacity: 0.15"/>
    </g>
   </g>
   <g id="FillBetweenPolyCollection_5">
    <defs>
     <path id="ma4dbb35d8e" d="M 53.883892 -55.599676 
L 53.883892 -51.655138 
L 65.505423 -51.135524 
L 100.370016 -47.32642 
L 100.370016 -51.993438 
L 100.370016 -51.993438 
L 65.505423 -55.020672 
L 53.883892 -55.599676 
z
"/>
    </defs>
    <g clip-path="url(#pd53f3b4ce9)">
     <use xlink:href="#ma4dbb35d8e" x="0" y="234.17" style="fill: #2ca02c; fill-opacity: 0.15"/>
    </g>
   </g>
   <g id="FillBetweenPolyCollection_6">
    <defs>
     <path id="m5cd9a01150" d="M 77.126954 -78.17652 
L 77.126954 -73.284121 
L 158.477672 -110.91595 
L 274.692983 -152.337274 
L 274.692983 -170.459619 
L 274.692983 -170.459619 
L 158.477672 -121.198456 
L 77.126954 -78.17652 
z
"/>
    </defs>
    <g clip-path="url(#pd53f3b4ce9)">
     <use xlink:href="#m5cd9a01150" x="0" y="234.17" style="fill: #2ca02c; fill-opacity: 0.15"/>
    </g>
   </g>
   <g id="matplotlib.axis_1">
    <g id="xtick_1">
     <g id="line2d_1">
      <path d="M 100.370016 194.678125 
L 100.370016 22.318125 
" clip-path="url(#pd53f3b4ce9)" style="fill: none; stroke: #b0b0b0; stroke-opacity: 0.25; stroke-width: 0.8; stroke-linecap: square"/>
     </g>
     <g id="line2d_2">
      <defs>
       <path id="md200ab46b6" d="M 0 0 
L 0 3.5 
" style="stroke: #000000; stroke-width: 0.8"/>
      </defs>
      <g>
       <use xlink:href="#md200ab46b6" x="100.370016" y="194.678125" style="stroke: #000000; stroke-width: 0.8"/>
      </g>
     </g>
     <g id="text_1">
      <text style="font-size: 11px; font-family: 'DejaVu Sans'; text-anchor: middle" x="100.370016" y="210.036406" transform="rotate(-0 100.370016 210.036406)">5</text>
     </g>
    </g>
    <g id="xtick_2">
     <g id="line2d_3">
      <path d="M 158.477672 194.678125 
L 158.477672 22.318125 
" clip-path="url(#pd53f3b4ce9)" style="fill: none; stroke: #b0b0b0; stroke-opacity: 0.25; stroke-width: 0.8; stroke-linecap: square"/>
     </g>
     <g id="line2d_4">
      <g>
       <use xlink:href="#md200ab46b6" x="158.477672" y="194.678125" style="stroke: #000000; stroke-width: 0.8"/>
      </g>
     </g>
     <g id="text_2">
      <text style="font-size: 11px; font-family: 'DejaVu Sans'; text-anchor: middle" x="158.477672" y="210.036406" transform="rotate(-0 158.477672 210.036406)">10</text>
     </g>
    </g>
    <g id="xtick_3">
     <g id="line2d_5">
      <path d="M 216.585327 194.678125 
L 216.585327 22.318125 
" clip-path="url(#pd53f3b4ce9)" style="fill: none; stroke: #b0b0b0; stroke-opacity: 0.25; stroke-width: 0.8; stroke-linecap: square"/>
     </g>
     <g id="line2d_6">
      <g>
       <use xlink:href="#md200ab46b6" x="216.585327" y="194.678125" style="stroke: #000000; stroke-width: 0.8"/>
      </g>
     </g>
     <g id="text_3">
      <text style="font-size: 11px; font-family: 'DejaVu Sans'; text-anchor: middle" x="216.585327" y="210.036406" transform="rotate(-0 216.585327 210.036406)">15</text>
     </g>
    </g>
    <g id="xtick_4">
     <g id="line2d_7">
      <path d="M 274.692983 194.678125 
L 274.692983 22.318125 
" clip-path="url(#pd53f3b4ce9)" style="fill: none; stroke: #b0b0b0; stroke-opacity: 0.25; stroke-width: 0.8; stroke-linecap: square"/>
     </g>
     <g id="line2d_8">
      <g>
       <use xlink:href="#md200ab46b6" x="274.692983" y="194.678125" style="stroke: #000000; stroke-width: 0.8"/>
      </g>
     </g>
     <g id="text_4">
      <text style="font-size: 11px; font-family: 'DejaVu Sans'; text-anchor: middle" x="274.692983" y="210.036406" transform="rotate(-0 274.692983 210.036406)">20</text>
     </g>
    </g>
    <g id="text_5">
     <text style="font-size: 11px; font-family: 'DejaVu Sans'; text-anchor: middle" x="164.288437" y="224.682344" transform="rotate(-0 164.288437 224.682344)">Contamination level (%)</text>
    </g>
   </g>
   <g id="matplotlib.axis_2">
    <g id="ytick_1">
     <g id="line2d_9">
      <path d="M 42.843438 183.284426 
L 285.733437 183.284426 
" clip-path="url(#pd53f3b4ce9)" style="fill: none; stroke: #b0b0b0; stroke-opacity: 0.25; stroke-width: 0.8; stroke-linecap: square"/>
     </g>
     <g id="line2d_10">
      <defs>
       <path id="m751b815302" d="M 0 0 
L -3.5 0 
" style="stroke: #000000; stroke-width: 0.8"/>
      </defs>
      <g>
       <use xlink:href="#m751b815302" x="42.843438" y="183.284426" style="stroke: #000000; stroke-width: 0.8"/>
      </g>
     </g>
     <g id="text_6">
      <text style="font-size: 11px; font-family: 'DejaVu Sans'; text-anchor: end" x="35.843438" y="187.463567" transform="rotate(-0 35.843438 187.463567)">0</text>
     </g>
    </g>
    <g id="ytick_2">
     <g id="line2d_11">
      <path d="M 42.843438 145.023174 
L 285.733437 145.023174 
" clip-path="url(#pd53f3b4ce9)" style="fill: none; stroke: #b0b0b0; stroke-opacity: 0.25; stroke-width: 0.8; stroke-linecap: square"/>
     </g>
     <g id="line2d_12">
      <g>
       <use xlink:href="#m751b815302" x="42.843438" y="145.023174" style="stroke: #000000; stroke-width: 0.8"/>
      </g>
     </g>
     <g id="text_7">
      <text style="font-size: 11px; font-family: 'DejaVu Sans'; text-anchor: end" x="35.843438" y="149.202315" transform="rotate(-0 35.843438 149.202315)">10</text>
     </g>
    </g>
    <g id="ytick_3">
     <g id="line2d_13">
      <path d="M 42.843438 106.761923 
L 285.733437 106.761923 
" clip-path="url(#pd53f3b4ce9)" style="fill: none; stroke: #b0b0b0; stroke-opacity: 0.25; stroke-width: 0.8; stroke-linecap: square"/>
     </g>
     <g id="line2d_14">
      <g>
       <use xlink:href="#m751b815302" x="42.843438" y="106.761923" style="stroke: #000000; stroke-width: 0.8"/>
      </g>
     </g>
     <g id="text_8">
      <text style="font-size: 11px; font-family: 'DejaVu Sans'; text-anchor: end" x="35.843438" y="110.941063" transform="rotate(-0 35.843438 110.941063)">20</text>
     </g>
    </g>
    <g id="ytick_4">
     <g id="line2d_15">
      <path d="M 42.843438 68.500671 
L 285.733437 68.500671 
" clip-path="url(#pd53f3b4ce9)" style="fill: none; stroke: #b0b0b0; stroke-opacity: 0.25; stroke-width: 0.8; stroke-linecap: square"/>
     </g>
     <g id="line2d_16">
      <g>
       <use xlink:href="#m751b815302" x="42.843438" y="68.500671" style="stroke: #000000; stroke-width: 0.8"/>
      </g>
     </g>
     <g id="text_9">
      <text style="font-size: 11px; font-family: 'DejaVu Sans'; text-anchor: end" x="35.843438" y="72.679811" transform="rotate(-0 35.843438 72.679811)">30</text>
     </g>
    </g>
    <g id="ytick_5">
     <g id="line2d_17">
      <path d="M 42.843438 30.239419 
L 285.733437 30.239419 
" clip-path="url(#pd53f3b4ce9)" style="fill: none; stroke: #b0b0b0; stroke-opacity: 0.25; stroke-width: 0.8; stroke-linecap: square"/>
     </g>
     <g id="line2d_18">
      <g>
       <use xlink:href="#m751b815302" x="42.843438" y="30.239419" style="stroke: #000000; stroke-width: 0.8"/>
      </g>
     </g>
     <g id="text_10">
      <text style="font-size: 11px; font-family: 'DejaVu Sans'; text-anchor: end" x="35.843438" y="34.41856" transform="rotate(-0 35.843438 34.41856)">40</text>
     </g>
    </g>
    <g id="text_11">
     <text style="font-size: 11px; font-family: 'DejaVu Sans'; text-anchor: middle" x="15.558281" y="108.498125" transform="rotate(-90 15.558281 108.498125)">Range-area change (%)</text>
    </g>
   </g>
   <g id="line2d_19">
    <path d="M 53.883892 179.991915 
L 65.505423 181.814572 
L 100.370016 178.728085 
" clip-path="url(#pd53f3b4ce9)" style="fill: none; stroke: #1f77b4; stroke-width: 1.6; stroke-linecap: square"/>
    <defs>
     <path id="mdc47bd83f4" d="M 0 2.25 
C 0.596707 2.25 1.169055 2.012926 1.59099 1.59099 
C 2.012926 1.169055 2.25 0.596707 2.25 0 
C 2.25 -0.596707 2.012926 -1.169055 1.59099 -1.59099 
C 1.169055 -2.012926 0.596707 -2.25 0 -2.25 
C -0.596707 -2.25 -1.169055 -2.012926 -1.59099 -1.59099 
C -2.012926 -1.169055 -2.25 -0.596707 -2.25 0 
C -2.25 0.596707 -2.012926 1.169055 -1.59099 1.59099 
C -1.169055 2.012926 -0.596707 2.25 0 2.25 
z
" style="stroke: #1f77b4"/>
    </defs>
    <g clip-path="url(#pd53f3b4ce9)">
     <use xlink:href="#mdc47bd83f4" x="53.883892" y="179.991915" style="fill: #1f77b4; stroke: #1f77b4"/>
     <use xlink:href="#mdc47bd83f4" x="65.505423" y="181.814572" style="fill: #1f77b4; stroke: #1f77b4"/>
     <use xlink:href="#mdc47bd83f4" x="100.370016" y="178.728085" style="fill: #1f77b4; stroke: #1f77b4"/>
    </g>
   </g>
   <g id="line2d_20">
    <path d="M 77.126954 165.452226 
L 158.477672 117.175533 
L 274.692983 56.724672 
" clip-path="url(#pd53f3b4ce9)" style="fill: none; stroke-dasharray: 5.92,2.56; stroke-dashoffset: 0; stroke: #1f77b4; stroke-width: 1.6"/>
    <defs>
     <path id="me512198326" d="M -2.25 2.25 
L 2.25 2.25 
L 2.25 -2.25 
L -2.25 -2.25 
z
" style="stroke: #1f77b4; stroke-linejoin: miter"/>
    </defs>
    <g clip-path="url(#pd53f3b4ce9)">
     <use xlink:href="#me512198326" x="77.126954" y="165.452226" style="fill: #1f77b4; stroke: #1f77b4; stroke-linejoin: miter"/>
     <use xlink:href="#me512198326" x="158.477672" y="117.175533" style="fill: #1f77b4; stroke: #1f77b4; stroke-linejoin: miter"/>
     <use xlink:href="#me512198326" x="274.692983" y="56.724672" style="fill: #1f77b4; stroke: #1f77b4; stroke-linejoin: miter"/>
    </g>
   </g>
   <g id="line2d_21">
    <path d="M 53.883892 178.380888 
L 65.505423 179.473464 
L 100.370016 177.831782 
" clip-path="url(#pd53f3b4ce9)" style="fill: none; stroke: #d62728; stroke-width: 1.6; stroke-linecap: square"/>
    <defs>
     <path id="mb0f96bb13f" d="M 0 2.25 
C 0.596707 2.25 1.169055 2.012926 1.59099 1.59099 
C 2.012926 1.169055 2.25 0.596707 2.25 0 
C 2.25 -0.596707 2.012926 -1.169055 1.59099 -1.59099 
C 1.169055 -2.012926 0.596707 -2.25 0 -2.25 
C -0.596707 -2.25 -1.169055 -2.012926 -1.59099 -1.59099 
C -2.012926 -1.169055 -2.25 -0.596707 -2.25 0 
C -2.25 0.596707 -2.012926 1.169055 -1.59099 1.59099 
C -1.169055 2.012926 -0.596707 2.25 0 2.25 
z
" style="stroke: #d62728"/>
    </defs>
    <g clip-path="url(#pd53f3b4ce9)">
     <use xlink:href="#mb0f96bb13f" x="53.883892" y="178.380888" style="fill: #d62728; stroke: #d62728"/>
     <use xlink:href="#mb0f96bb13f" x="65.505423" y="179.473464" style="fill: #d62728; stroke: #d62728"/>
     <use xlink:href="#mb0f96bb13f" x="100.370016" y="177.831782" style="fill: #d62728; stroke: #d62728"/>
    </g>
   </g>
   <g id="line2d_22">
    <path d="M 77.126954 162.187938 
L 158.477672 111.991389 
L 274.692983 44.63171 
" clip-path="url(#pd53f3b4ce9)" style="fill: none; stroke-dasharray: 5.92,2.56; stroke-dashoffset: 0; stroke: #d62728; stroke-width: 1.6"/>
    <defs>
     <path id="mb4a9e30904" d="M -2.25 2.25 
L 2.25 2.25 
L 2.25 -2.25 
L -2.25 -2.25 
z
" style="stroke: #d62728; stroke-linejoin: miter"/>
    </defs>
    <g clip-path="url(#pd53f3b4ce9)">
     <use xlink:href="#mb4a9e30904" x="77.126954" y="162.187938" style="fill: #d62728; stroke: #d62728; stroke-linejoin: miter"/>
     <use xlink:href="#mb4a9e30904" x="158.477672" y="111.991389" style="fill: #d62728; stroke: #d62728; stroke-linejoin: miter"/>
     <use xlink:href="#mb4a9e30904" x="274.692983" y="44.63171" style="fill: #d62728; stroke: #d62728; stroke-linejoin: miter"/>
    </g>
   </g>
   <g id="line2d_23">
    <path d="M 53.883892 180.496043 
L 65.505423 181.081683 
L 100.370016 184.544857 
" clip-path="url(#pd53f3b4ce9)" style="fill: none; stroke: #2ca02c; stroke-width: 1.6; stroke-linecap: square"/>
    <defs>
     <path id="m6034d9d340" d="M 0 2.25 
C 0.596707 2.25 1.169055 2.012926 1.59099 1.59099 
C 2.012926 1.169055 2.25 0.596707 2.25 0 
C 2.25 -0.596707 2.012926 -1.169055 1.59099 -1.59099 
C 1.169055 -2.012926 0.596707 -2.25 0 -2.25 
C -0.596707 -2.25 -1.169055 -2.012926 -1.59099 -1.59099 
C -2.012926 -1.169055 -2.25 -0.596707 -2.25 0 
C -2.25 0.596707 -2.012926 1.169055 -1.59099 1.59099 
C -1.169055 2.012926 -0.596707 2.25 0 2.25 
z
" style="stroke: #2ca02c"/>
    </defs>
    <g clip-path="url(#pd53f3b4ce9)">
     <use xlink:href="#m6034d9d340" x="53.883892" y="180.496043" style="fill: #2ca02c; stroke: #2ca02c"/>
     <use xlink:href="#m6034d9d340" x="65.505423" y="181.081683" style="fill: #2ca02c; stroke: #2ca02c"/>
     <use xlink:href="#m6034d9d340" x="100.370016" y="184.544857" style="fill: #2ca02c; stroke: #2ca02c"/>
    </g>
   </g>
   <g id="line2d_24">
    <path d="M 77.126954 158.440608 
L 158.477672 118.174541 
L 274.692983 72.974196 
" clip-path="url(#pd53f3b4ce9)" style="fill: none; stroke-dasharray: 5.92,2.56; stroke-dashoffset: 0; stroke: #2ca02c; stroke-width: 1.6"/>
    <defs>
     <path id="m5d74d29844" d="M -2.25 2.25 
L 2.25 2.25 
L 2.25 -2.25 
L -2.25 -2.25 
z
" style="stroke: #2ca02c; stroke-linejoin: miter"/>
    </defs>
    <g clip-path="url(#pd53f3b4ce9)">
     <use xlink:href="#m5d74d29844" x="77.126954" y="158.440608" style="fill: #2ca02c; stroke: #2ca02c; stroke-linejoin: miter"/>
     <use xlink:href="#m5d74d29844" x="158.477672" y="118.174541" style="fill: #2ca02c; stroke: #2ca02c; stroke-linejoin: miter"/>
     <use xlink:href="#m5d74d29844" x="274.692983" y="72.974196" style="fill: #2ca02c; stroke: #2ca02c; stroke-linejoin: miter"/>
    </g>
   </g>
   <g id="patch_3">
    <path d="M 42.843438 194.678125 
L 42.843438 22.318125 
" style="fill: none; stroke: #000000; stroke-width: 0.8; stroke-linejoin: miter; stroke-linecap: square"/>
   </g>
   <g id="patch_4">
    <path d="M 285.733437 194.678125 
L 285.733437 22.318125 
" style="fill: none; stroke: #000000; stroke-width: 0.8; stroke-linejoin: miter; stroke-linecap: square"/>
   </g>
   <g id="patch_5">
    <path d="M 42.843438 194.678125 
L 285.733437 194.678125 
" style="fill: none; stroke: #000000; stroke-width: 0.8; stroke-linejoin: miter; stroke-linecap: square"/>
   </g>
   <g id="patch_6">
    <path d="M 42.843438 22.318125 
L 285.733437 22.318125 
" style="fill: none; stroke: #000000; stroke-width: 0.8; stroke-linejoin: miter; stroke-linecap: square"/>
   </g>
   <g id="text_12">
    <text style="font-weight: 700; font-size: 12px; font-family: 'DejaVu Sans'; text-anchor: middle" x="164.288437" y="16.318125" transform="rotate(-0 164.288437 16.318125)">(c) Range-area change (%)</text>
   </g>
  </g>
 </g>
 <defs>
  <clipPath id="pd53f3b4ce9">
   <rect x="42.843438" y="22.318125" width="242.89" height="172.36"/>
  </clipPath>
 </defs>
</svg>
