<?xml version="1.0" encoding="utf-8" standalone="no"?>
<!DOCTYPE svg PUBLIC "-//W3C//DTD SVG 1.1//EN"
  "http://www.w3.org/Graphics/SVG/1.1/DTD/svg11.dtd">
<svg xmlns:xlink="http://www.w3.org/1999/xlink" width="314.9575pt" height="234.17pt" viewBox="0 0 314.9575 234.17" xmlns="http://www.w3.org/2000/svg" version="1.1">
 <metadata>
  <rdf:RDF xmlns:dc="http://purl.org/dc/elements/1.1/" xmlns:cc="http://creativecommons.org/ns#" xmlns:rdf="http://www.w3.org/1999/02/22-rdf-syntax-ns#">
   <cc:Work>
    <dc:type rdf:resource="http://purl.org/dc/dcmitype/StillImage"/>
    <dc:date>2026-07-21T14:17:57.457760</dc:date>
    <dc:format>image/svg+xml</dc:format>
    <dc:creator>
     <cc:Agent>
      <dc:title>Matplotlib v3.10.9, https://matplotlib.org/</dc:title>
     </cc:Agent>
    </dc:creator>
   </cc:Work>
  </rdf:RDF>
 </metadata>
 <defs>
  <style type="text/css">*{stroke-linejoin: round; stroke-linecap: butt}</style>
 </defs>
 <g id="figure_1">
  <g id="patch_1">
   <path d="M 0 234.17 
L 314.9575 234.17 
L 314.9575 0 
L 0 0 
z
" style="fill: #ffffff"/>
  </g>
  <g id="axes_1">
   <g id="patch_2">
    <path d="M 60.336875 194.678125 
L 276.766875 194.678125 
L 276.766875 22.318125 
L 60.336875 22.318125 
z
" style="fill: #ffffff"/>
   </g>
   <g id="FillBetweenPolyCollection_1">
    <defs>
     <path id="m41479ed599" d="M 70.174602 -60.412308 
L 70.174602 -47.32642 
L 80.530105 -50.393715 
L 111.596612 -48.899662 
L 111.596612 -61.830968 
L 111.596612 -61.830968 
L 80.530105 -63.294504 
L 70.174602 -60.412308 
z
"/>
    </defs>
    <g clip-path="url(#p0f346267e6)">
     <use xlink:href="#m41479ed599" x="0" y="234.17" style="fill: #1f77b4; fill-opacity: 0.15"/>
    </g>
   </g>
   <g id="FillBetweenPolyCollection_2">
    <defs>
     <path id="m93b253c924" d="M 90.885607 -67.900208 
L 90.885607 -55.646498 
L 163.374124 -65.084724 
L 266.929148 -71.675539 
L 266.929148 -87.072913 
L 266.929148 -87.072913 
L 163.374124 -78.707411 
L 90.885607 -67.900208 
z
"/>
    </defs>
    <g clip-path="url(#p0f346267e6)">
     <use xlink:href="#m93b253c924" x="0" y="234.17" style="fill: #1f77b4; fill-opacity: 0.15"/>
    </g>
   </g>
   <g id="FillBetweenPolyCollection_3">
    <defs>
     <path id="m515ea5fe07" d="M 70.174602 -106.276932 
L 70.174602 -60.117984 
L 80.530105 -77.241806 
L 111.596612 -79.114606 
L 111.596612 -129.059184 
L 111.596612 -129.059184 
L 80.530105 -123.170057 
L 70.174602 -106.276932 
z
"/>
    </defs>
    <g clip-path="url(#p0f346267e6)">
     <use xlink:href="#m515ea5fe07" x="0" y="234.17" style="fill: #d62728; fill-opacity: 0.15"/>
    </g>
   </g>
   <g id="FillBetweenPolyCollection_4">
    <defs>
     <path id="m24a71a87ca" d="M 90.885607 -134.506198 
L 90.885607 -84.055097 
L 163.374124 -117.591618 
L 266.929148 -147.00928 
L 266.929148 -204.01733 
L 266.929148 -204.01733 
L 163.374124 -165.768751 
L 90.885607 -134.506198 
z
"/>
    </defs>
    <g clip-path="url(#p0f346267e6)">
     <use xlink:href="#m24a71a87ca" x="0" y="234.17" style="fill: #d62728; fill-opacity: 0.15"/>
    </g>
   </g>
   <g id="matplotlib.axis_1">
    <g id="xtick_1">
     <g id="line2d_1">
      <path d="M 111.596612 194.678125 
L 111.596612 22.318125 
" clip-path="url(#p0f346267e6)" style="fill: none; stroke: #b0b0b0; stroke-opacity: 0.25; stroke-width: 0.8; stroke-linecap: square"/>
     </g>
     <g id="line2d_2">
      <defs>
       <path id="ma2a84c541e" d="M 0 0 
L 0 3.5 
" style="stroke: #000000; stroke-width: 0.8"/>
      </defs>
      <g>
       <use xlink:href="#ma2a84c541e" x="111.596612" y="194.678125" style="stroke: #000000; stroke-width: 0.8"/>
      </g>
     </g>
     <g id="text_1">
      <text style="font-size: 11px; font-family: 'DejaVu Sans'; text-anchor: middle" x="111.596612" y="210.036406" transform="rotate(-0 111.596612 210.036406)">5</text>
     </g>
    </g>
    <g id="xtick_2">
     <g id="line2d_3">
      <path d="M 163.374124 194.678125 
L 163.374124 22.318125 
" clip-path="url(#p0f346267e6)" style="fill: none; stroke: #b0b0b0; stroke-opacity: 0.25; stroke-width: 0.8; stroke-linecap: square"/>
     </g>
     <g id="line2d_4">
      <g>
       <use xlink:href="#ma2a84c541e" x="163.374124" y="194.678125" style="stroke: #000000; stroke-width: 0.8"/>
      </g>
     </g>
     <g id="text_2">
      <text style="font-size: 11px; font-family: 'DejaVu Sans'; text-anchor: middle" x="163.374124" y="210.036406" transform="rotate(-0 163.374124 210.036406)">10</text>
     </g>
    </g>
    <g id="xtick_3">
     <g id="line2d_5">
      <path d="M 215.151636 194.678125 
L 215.151636 22.318125 
" clip-path="url(#p0f346267e6)" style="fill: none; stroke: #b0b0b0; stroke-opacity: 0.25; stroke-width: 0.8; stroke-linecap: square"/>
     </g>
     <g id="line2d_6">
      <g>
       <use xlink:href="#ma2a84c541e" x="215.151636" y="194.678125" style="stroke: #000000; stroke-width: 0.8"/>
      </g>
     </g>
     <g id="text_3">
      <text style="font-size: 11px; font-family: 'DejaVu Sans'; text-anchor: middle" x="215.151636" y="210.036406" transform="rotate(-0 215.151636 210.036406)">15</text>
     </g>
    </g>
    <g id="xtick_4">
     <g id="line2d_7">
      <path d="M 266.929148 194.678125 
L 266.929148 22.318125 
" clip-path="url(#p0f346267e6)" style="fill: none; stroke: #b0b0b0; stroke-opacity: 0.25; stroke-width: 0.8; stroke-linecap: square"/>
     </g>
     <g id="line2d_8">
      <g>
       <use xlink:href="#ma2a84c541e" x="266.929148" y="194.678125" style="stroke: #000000; stroke-width: 0.8"/>
      </g>
     </g>
     <g id="text_4">
      <text style="font-size: 11px; font-family: 'DejaVu Sans'; text-anchor: middle" x="266.929148" y="210.036406" transform="rotate(-0 266.929148 210.036406)">20</text>
     </g>
    </g>
    <g id="text_5">
     <text style="font-size: 11px; font-family: 'DejaVu Sans'; text-anchor: middle" x="168.551875" y="224.682344" transform="rotate(-0 168.551875 224.682344)">Contamination level (%)</text>
    </g>
   </g>
   <g id="matplotlib.axis_2">
    <g id="ytick_1">
     <g id="line2d_9">
      <path d="M 60.336875 169.458061 
L 276.766875 169.458061 
" clip-path="url(#p0f346267e6)" style="fill: none; stroke: #b0b0b0; stroke-opacity: 0.25; stroke-width: 0.8; stroke-linecap: square"/>
     </g>
     <g id="line2d_10">
      <defs>
       <path id="m073f90076b" d="M 0 0 
L -3.5 0 
" style="stroke: #000000; stroke-width: 0.8"/>
      </defs>
      <g>
       <use xlink:href="#m073f90076b" x="60.336875" y="169.458061" style="stroke: #000000; stroke-width: 0.8"/>
      </g>
     </g>
     <g id="text_6">
      <text style="font-size: 11px; font-family: 'DejaVu Sans'; text-anchor: end" x="53.336875" y="173.637202" transform="rotate(-0 53.336875 173.637202)">0.000</text>
     </g>
    </g>
    <g id="ytick_2">
     <g id="line2d_11">
      <path d="M 60.336875 122.31492 
L 276.766875 122.31492 
" clip-path="url(#p0f346267e6)" style="fill: none; stroke: #b0b0b0; stroke-opacity: 0.25; stroke-width: 0.8; stroke-linecap: square"/>
     </g>
     <g id="line2d_12">
      <g>
       <use xlink:href="#m073f90076b" x="60.336875" y="122.31492" style="stroke: #000000; stroke-width: 0.8"/>
      </g>
     </g>
     <g id="text_7">
      <text style="font-size: 11px; font-family: 'DejaVu Sans'; text-anchor: end" x="53.336875" y="126.494061" transform="rotate(-0 53.336875 126.494061)">0.002</text>
     </g>
    </g>
    <g id="ytick_3">
     <g id="line2d_13">
      <path d="M 60.336875 75.171779 
L 276.766875 75.171779 
" clip-path="url(#p0f346267e6)" style="fill: none; stroke: #b0b0b0; stroke-opacity: 0.25; stroke-width: 0.8; stroke-linecap: square"/>
     </g>
     <g id="line2d_14">
      <g>
       <use xlink:href="#m073f90076b" x="60.336875" y="75.171779" style="stroke: #000000; stroke-width: 0.8"/>
      </g>
     </g>
     <g id="text_8">
      <text style="font-size: 11px; font-family: 'DejaVu Sans'; text-anchor: end" x="53.336875" y="79.350919" transform="rotate(-0 53.336875 79.350919)">0.004</text>
     </g>
    </g>
    <g id="ytick_4">
     <g id="line2d_15">
      <path d="M 60.336875 28.028637 
L 276.766875 28.028637 
" clip-path="url(#p0f346267e6)" style="fill: none; stroke: #b0b0b0; stroke-opacity: 0.25; stroke-width: 0.8; stroke-linecap: square"/>
     </g>
     <g id="line2d_16">
      <g>
       <use xlink:href="#m073f90076b" x="60.336875" y="28.028637" style="stroke: #000000; stroke-width: 0.8"/>
      </g>
     </g>
     <g id="text_9">
      <text style="font-size: 11px; font-family: 'DejaVu Sans'; text-anchor: end" x="53.336875" y="32.207778" transform="rotate(-0 53.336875 32.207778)">0.006</text>
     </g>
    </g>
    <g id="text_10">
     <text style="font-size: 11px; font-family: 'DejaVu Sans'; text-anchor: middle" x="15.558281" y="108.498125" transform="rotate(-90 15.558281 108.498125)">Importance-share difference</text>
    </g>
   </g>
   <g id="line2d_17">
    <path d="M 70.174602 180.546717 
L 80.530105 177.339609 
L 111.596612 178.676029 
" clip-path="url(#p0f346267e6)" style="fill: none; stroke: #1f77b4; stroke-width: 1.6; stroke-linecap: square"/>
    <defs>
     <path id="m80b999df44" d="M 0 2.25 
C 0.596707 2.25 1.169055 2.012926 1.59099 1.59099 
C 2.012926 1.169055 2.25 0.596707 2.25 0 
C 2.25 -0.596707 2.012926 -1.169055 1.59099 -1.59099 
C 1.169055 -2.012926 0.596707 -2.25 0 -2.25 
C -0.596707 -2.25 -1.169055 -2.012926 -1.59099 -1.59099 
C -2.012926 -1.169055 -2.25 -0.596707 -2.25 0 
C -2.25 0.596707 -2.012926 1.169055 -1.59099 1.59099 
C -1.169055 2.012926 -0.596707 2.25 0 2.25 
z
" style="stroke: #1f77b4"/>
    </defs>
    <g clip-path="url(#p0f346267e6)">
     <use xlink:href="#m80b999df44" x="70.174602" y="180.546717" style="fill: #1f77b4; stroke: #1f77b4"/>
     <use xlink:href="#m80b999df44" x="80.530105" y="177.339609" style="fill: #1f77b4; stroke: #1f77b4"/>
     <use xlink:href="#m80b999df44" x="111.596612" y="178.676029" style="fill: #1f77b4; stroke: #1f77b4"/>
    </g>
   </g>
   <g id="line2d_18">
    <path d="M 90.885607 172.314906 
L 163.374124 162.400429 
L 266.929148 155.166836 
" clip-path="url(#p0f346267e6)" style="fill: none; stroke-dasharray: 5.92,2.56; stroke-dashoffset: 0; stroke: #1f77b4; stroke-width: 1.6"/>
    <defs>
     <path id="m19e7e1591d" d="M -2.25 2.25 
L 2.25 2.25 
L 2.25 -2.25 
L -2.25 -2.25 
z
" style="stroke: #1f77b4; stroke-linejoin: miter"/>
    </defs>
    <g clip-path="url(#p0f346267e6)">
     <use xlink:href="#m19e7e1591d" x="90.885607" y="172.314906" style="fill: #1f77b4; stroke: #1f77b4; stroke-linejoin: miter"/>
     <use xlink:href="#m19e7e1591d" x="163.374124" y="162.400429" style="fill: #1f77b4; stroke: #1f77b4; stroke-linejoin: miter"/>
     <use xlink:href="#m19e7e1591d" x="266.929148" y="155.166836" style="fill: #1f77b4; stroke: #1f77b4; stroke-linejoin: miter"/>
    </g>
   </g>
   <g id="line2d_19">
    <path d="M 70.174602 150.716149 
L 80.530105 133.661746 
L 111.596612 130.405007 
" clip-path="url(#p0f346267e6)" style="fill: none; stroke: #d62728; stroke-width: 1.6; stroke-linecap: square"/>
    <defs>
     <path id="m6eadcbade8" d="M 0 2.25 
C 0.596707 2.25 1.169055 2.012926 1.59099 1.59099 
C 2.012926 1.169055 2.25 0.596707 2.25 0 
C 2.25 -0.596707 2.012926 -1.169055 1.59099 -1.59099 
C 1.169055 -2.012926 0.596707 -2.25 0 -2.25 
C -0.596707 -2.25 -1.169055 -2.012926 -1.59099 -1.59099 
C -2.012926 -1.169055 -2.25 -0.596707 -2.25 0 
C -2.25 0.596707 -2.012926 1.169055 -1.59099 1.59099 
C -1.169055 2.012926 -0.596707 2.25 0 2.25 
z
" style="stroke: #d62728"/>
    </defs>
    <g clip-path="url(#p0f346267e6)">
     <use xlink:href="#m6eadcbade8" x="70.174602" y="150.716149" style="fill: #d62728; stroke: #d62728"/>
     <use xlink:href="#m6eadcbade8" x="80.530105" y="133.661746" style="fill: #d62728; stroke: #d62728"/>
     <use xlink:href="#m6eadcbade8" x="111.596612" y="130.405007" style="fill: #d62728; stroke: #d62728"/>
    </g>
   </g>
   <g id="line2d_20">
    <path d="M 90.885607 124.398559 
L 163.374124 91.778642 
L 266.929148 58.127704 
" clip-path="url(#p0f346267e6)" style="fill: none; stroke-dasharray: 5.92,2.56; stroke-dashoffset: 0; stroke: #d62728; stroke-width: 1.6"/>
    <defs>
     <path id="m0d0e9c11d9" d="M -2.25 2.25 
L 2.25 2.25 
L 2.25 -2.25 
L -2.25 -2.25 
z
" style="stroke: #d62728; stroke-linejoin: miter"/>
    </defs>
    <g clip-path="url(#p0f346267e6)">
     <use xlink:href="#m0d0e9c11d9" x="90.885607" y="124.398559" style="fill: #d62728; stroke: #d62728; stroke-linejoin: miter"/>
     <use xlink:href="#m0d0e9c11d9" x="163.374124" y="91.778642" style="fill: #d62728; stroke: #d62728; stroke-linejoin: miter"/>
     <use xlink:href="#m0d0e9c11d9" x="266.929148" y="58.127704" style="fill: #d62728; stroke: #d62728; stroke-linejoin: miter"/>
    </g>
   </g>
   <g id="line2d_21">
    <path d="M 60.336875 169.458061 
L 276.766875 169.458061 
" clip-path="url(#p0f346267e6)" style="fill: none; stroke-dasharray: 0.7,1.155; stroke-dashoffset: 0; stroke: #000000; stroke-opacity: 0.6; stroke-width: 0.7"/>
   </g>
   <g id="patch_3">
    <path d="M 60.336875 194.678125 
L 60.336875 22.318125 
" style="fill: none; stroke: #000000; stroke-width: 0.8; stroke-linejoin: miter; stroke-linecap: square"/>
   </g>
   <g id="patch_4">
    <path d="M 276.766875 194.678125 
L 276.766875 22.318125 
" style="fill: none; stroke: #000000; stroke-width: 0.8; stroke-linejoin: miter; stroke-linecap: square"/>
   </g>
   <g id="patch_5">
    <path d="M 60.336875 194.678125 
L 276.766875 194.678125 
" style="fill: none; stroke: #000000; stroke-width: 0.8; stroke-linejoin: miter; stroke-linecap: square"/>
   </g>
   <g id="patch_6">
    <path d="M 60.336875 22.318125 
L 276.766875 22.318125 
" style="fill: none; stroke: #000000; stroke-width: 0.8; stroke-linejoin: miter; stroke-linecap: square"/>
   </g>
   <g id="text_11">
    <text style="font-weight: 700; font-size: 12px; font-family: 'DejaVu Sans'; text-anchor: middle" x="168.551875" y="16.318125" transform="rotate(-0 168.551875 16.318125)">(S5) Land-cover-domain importance shift</text>
   </g>
  </g>
 </g>
 <defs>
  <clipPath id="p0f346267e6">
   <rect x="60.336875" y="22.318125" width="216.43" height="172.36"/>
  </clipPath>
 </defs>
</svg>
